# xmcd
#
# Track frame offsets:
#	150
#	15242
#	29684
#	43743
#	74190
#	104557
#	137368
#	158586
#	194829
#	224039
#	254266
#	285883
#	317043
#
# Disc length: 4320
#
# Revision: 3
# Processed by: cddbd v1.5.1PL0 Copyright (c) Steve Scherf et al.
# Submitted via: EZCDDA 4.3.2
# Normalized: r2:DSETVAR1,TDELIM( - )
#
DISCID=c410de0d
DTITLE=Various Artist - juu
DYEAR=1900
DGENRE=
TTITLE0=Boney M - Ocean Of Fantasy
TTITLE1=Boney M - Ocean Of Fantasy (pitch +3.3%)
TTITLE2=Boney M - Ocean Of Fantasy (pitch +6.0%)
TTITLE3=Loose Joints II - Electric Ballroom (a1. proves groove)
TTITLE4=Loose Joints II - Electric Ballroom (a2. g's workout)
TTITLE5=Loose Joints II - Electric Ballroom (b1. turning)
TTITLE6=Loose Joints II - Electric Ballroom (b2. romance)
TTITLE7=Audio Soul Project - Spirit Repair EP (a. back to joy)
TTITLE8=Audio Soul Project - Spirit Repair EP (b1. gettin' the feeling)
TTITLE9=Audio Soul Project - Spirit Repair EP (b2. say yeah)
TTITLE10=Shawn Ward - In The City EP (a. cruiseship)
TTITLE11=Mateo And Matos - Tension (dj tony humphries)
TTITLE12=Drumz - Eternal Sun
EXTD=
EXTT0=
EXTT1=
EXTT2=
EXTT3=
EXTT4=
EXTT5=
EXTT6=
EXTT7=
EXTT8=
EXTT9=
EXTT10=
EXTT11=
EXTT12=
PLAYORDER=
